# xmcd
#
# Track frame offsets:
#	150
#	20269
#	38950
#	55947
#	75204
#	92968
#	107560
#	123773
#	141456
#	161428
#	180062
#	197458
#	218167
#	230311
#
# Disc length: 4745 seconds
#
# Revision: 2
# Processed by: cddbd v1.5.2PL0 Copyright (c) Steve Scherf et al.
# Submitted via: EasyCDDAExtractor 12.0.4.1
#
DISCID=a512870e
DTITLE=Various Artist - Rhythm&Boyd 11
DYEAR=1900
DGENRE=Pop
TTITLE0=อภิวัชร์ เอื้อถาวรสุข - สมมุติ
TTITLE1=ศุภวัฒน์ พีรานนท์ - ที่ฉันรู้
TTITLE2=ศุภศิฒฐ์ สกลธนารักษ์,ธิติ สกลธนารักษ์ - อย่าเพิ่งไป
TTITLE3=อารมณ์ โพธิ์หาญรัตนกุล - คำถามโง่ๆ
TTITLE4=มาเรียม อัลคาลาลี,ศุภวัฒน์ พีรานนท์ - กิเลสตัณหา
TTITLE5=อภิวัชร์ เอื้อถาวรสุข - เธอที่ไม่เคยเปลี่ยน
TTITLE6=วาระ มีชูธน,วุฒิ วงศ์สรรเสริญ,ธิติ สกลธนารักษ์ - ใกล้สวรรค์
TTITLE7=ภพธร สุนทรญาณกิจ - จะทำยังไง
TTITLE8=มาเรียม อัลคาลาลี - สีเทา
TTITLE9=อาวินน์ ระวียัน - อย่าให้ฉันรอเลย
TTITLE10=christophe descamps - เพื่อนเก่า
TTITLE11=วาระ มีชูธน - ฉันดีใจที่มีเธอ
TTITLE12=True Music Center
TTITLE13=DATA
EXTD=
EXTT0=
EXTT1=
EXTT2=
EXTT3=
EXTT4=
EXTT5=
EXTT6=
EXTT7=
EXTT8=
EXTT9=
EXTT10=
EXTT11=
EXTT12=
EXTT13=
PLAYORDER=
